/vscmnt/brussel_pixiu_data/_data_brussel/112/vsc11236/PredSimResults/SUBJ07mtu3D/worker1.mot
version=1
nRows=9
nColumns=50
inDegrees=yes
endheader
                time	         pelvis_tilt	         pelvis_list	     pelvis_rotation	           pelvis_tx	           pelvis_ty	           pelvis_tz	       hip_flexion_r	     hip_adduction_r	      hip_rotation_r	        knee_angle_r	       ankle_angle_r	         mtp_angle_r	       hip_flexion_l	     hip_adduction_l	      hip_rotation_l	        knee_angle_l	       ankle_angle_l	         mtp_angle_l	    lumbar_extension	      lumbar_bending	     lumbar_rotation	 ercspn_r/activation	 intobl_r/activation	 extobl_r/activation	    abd_r/activation	    add_r/activation	hamstrings_r/activation	bifemsh_r/activation	glut_max_r/activation	iliopsoas_r/activation	rect_fem_r/activation	  vasti_r/activation	gastroc_r/activation	 soleus_r/activation	tib_ant_r/activation	 ercspn_l/activation	 intobl_l/activation	 extobl_l/activation	    abd_l/activation	    add_l/activation	hamstrings_l/activation	bifemsh_l/activation	glut_max_l/activation	iliopsoas_l/activation	rect_fem_l/activation	  vasti_l/activation	gastroc_l/activation	 soleus_l/activation	tib_ant_l/activation	
          1.08253195	         -6.27231559	         -1.00772804	          6.51606796	          1.32068898	          0.85013078	         -0.00944204	         31.82981128	         -0.62591999	         -1.80153665	         -5.95346660	          9.65784759	          0.25225502	        -11.12747383	          0.19892623	          5.30675231	         -8.89425123	          9.65919235	         24.56078393	         -7.15334494	         -1.08904339	         -0.78861802	          0.11854871	          0.16176260	          0.01047722	          0.02458400	          0.09133189	          0.07394822	          0.09967872	          0.03577019	          0.02391371	          0.01552423	          0.01000006	          0.01664537	          0.01000040	          0.18873898	          0.07750925	          0.01000000	          0.01000001	          0.03769625	          0.01000016	          0.01181304	          0.13314108	          0.02291848	          0.24020060	          0.01000007	          0.01000001	          0.18013058	          0.28908647	          0.01910514	
          1.09335727	         -6.27353214	         -0.92725355	          6.47798262	          1.33610475	          0.84846897	         -0.00931381	         31.54694722	         -0.36702235	         -1.26606877	         -7.08958038	          9.36015614	          0.25318612	        -11.41346813	          0.26655690	          4.91268237	        -10.33643956	          9.04863712	         26.14536892	         -7.00646210	         -0.71753446	         -0.97635807	          0.10042915	          0.13703795	          0.01000001	          0.02082645	          0.12622662	          0.06264558	          0.09994114	          0.10643843	          0.02025862	          0.01315154	          0.01000003	          0.01644802	          0.01394979	          0.19110500	          0.12228955	          0.01000000	          0.01000001	          0.03193455	          0.02688393	          0.01541838	          0.11279110	          0.01941550	          0.28590388	          0.01003103	          0.01000007	          0.15259846	          0.27575053	          0.01618501	
          1.10418259	         -6.26591568	         -0.85644874	          6.39422617	          1.35176760	          0.84688470	         -0.00915831	         31.15295918	         -0.17500122	         -0.65666968	         -8.29410910	          9.08152189	          0.24078196	        -11.58741209	          0.33608821	          4.48161283	        -12.02510239	          8.34849964	         27.67713977	         -6.83267618	         -0.32136333	         -1.16079128	          0.10398284	          0.12903891	          0.01000001	          0.08022068	          0.10747344	          0.05971537	          0.08466920	          0.12676160	          0.01716218	          0.01114150	          0.01000000	          0.01393403	          0.01181763	          0.22617924	          0.13437040	          0.01000000	          0.01000001	          0.02705350	          0.02277490	          0.01653658	          0.09555152	          0.01644793	          0.24220484	          0.01000008	          0.01000006	          0.12927450	          0.25667546	          0.01371121	
          1.11500791	         -6.25410148	         -0.78547306	          6.26451590	          1.36745200	          0.84557663	         -0.00892264	         30.70960628	          0.00628626	         -0.10361134	         -9.38480992	          8.69409073	          0.23230465	        -11.56444979	          0.41755372	          4.01759715	        -14.06283209	          7.50372194	         29.12131953	         -6.65736001	          0.07915870	         -1.34060934	          0.12021168	          0.10931592	          0.01000001	          0.12703239	          0.10811416	          0.05058825	          0.07172793	          0.16099811	          0.01453903	          0.01000055	          0.01139454	          0.01180429	          0.01001137	          0.24880772	          0.15398928	          0.01000000	          0.01000001	          0.02291850	          0.01929387	          0.01775585	          0.08094693	          0.01393394	          0.21088520	          0.01000012	          0.01000002	          0.10951550	          0.23664161	          0.01161551	
          1.12583323	         -6.23961555	         -0.71437120	          6.09254299	          1.38297228	          0.84471670	         -0.00861028	         30.30598550	          0.19536838	          0.38199923	        -10.51911410	          8.29338683	          0.21999011	        -11.28555778	          0.51065798	          3.51949167	        -16.51313385	          6.48715814	         30.36363625	         -6.49863816	          0.48327390	         -1.51218226	          0.11969080	          0.09260750	          0.01000000	          0.15362365	          0.12080928	          0.04827456	          0.06076469	          0.16899525	          0.01231681	          0.01000049	          0.05008232	          0.01000008	          0.01000001	          0.27300186	          0.18189860	          0.01000000	          0.01000001	          0.01941552	          0.02956891	          0.01864658	          0.06857459	          0.01180421	          0.17865241	          0.01000004	          0.01000000	          0.09277657	          0.20271856	          0.00999999	
          1.13665855	         -6.22354418	         -0.64556957	          5.88376099	          1.39826109	          0.84440614	         -0.00823108	         29.91791684	          0.39330293	          0.80853838	        -11.66330837	          7.98024598	          0.20499116	        -10.71143863	          0.60926870	          2.98546904	        -19.42499464	          5.33416307	         31.16408265	         -6.35781139	          0.88940956	         -1.67504709	          0.12118052	          0.07845288	          0.01000000	          0.17287579	          0.12711186	          0.04895860	          0.05147713	          0.16918811	          0.01043425	          0.01000042	          0.09263415	          0.01000005	          0.01000004	          0.27929224	          0.19610572	          0.01000000	          0.01000001	          0.01644795	          0.04523114	          0.01923605	          0.05809330	          0.01000000	          0.15134624	          0.01000002	          0.01000000	          0.07859610	          0.17173398	          0.01000000	
          1.14748387	         -6.20754530	         -0.57867741	          5.64049275	          1.41328293	          0.84469962	         -0.00780392	         29.48368428	          0.59396987	          1.18442003	        -12.70760872	          7.79206097	          0.19038542	         -9.80998412	          0.70875577	          2.41606598	        -22.83245151	          4.04927513	         31.31732660	         -6.23354261	          1.29515098	         -1.82570272	          0.11021492	          0.06646172	          0.01000000	          0.18110739	          0.12584699	          0.04970122	          0.04360913	          0.16187533	          0.01000001	          0.01000034	          0.14066418	          0.01000036	          0.01000906	          0.27806703	          0.20524892	          0.01000000	          0.01000001	          0.01393395	          0.05816882	          0.01911061	          0.04921404	          0.01000000	          0.12821368	          0.01000002	          0.01000000	          0.06658305	          0.14548524	          0.00999999	
          1.15830919	         -6.19394056	         -0.51371916	          5.36318868	          1.42800061	          0.84561929	         -0.00734344	         28.94233362	          0.79192451	          1.51798610	        -13.52999215	          7.71859688	          0.17875781	         -8.56656825	          0.80201860	          1.82073316	        -26.70203340	          2.50396209	         30.81515672	         -6.12721514	          1.69826909	         -1.95999085	          0.09336913	          0.05630336	          0.01000000	          0.18170722	          0.12090274	          0.05404952	          0.03694372	          0.14608551	          0.01000001	          0.01000034	          0.17537490	          0.01000008	          0.01000004	          0.27139221	          0.20792199	          0.01000000	          0.01000001	          0.01180421	          0.06690546	          0.01637926	          0.04169193	          0.00999999	          0.10861682	          0.01000001	          0.00999999	          0.05640615	          0.12324850	          0.01000000	
          1.16913451	         -6.18434321	         -0.44874226	          5.05405500	          1.44239150	          0.84710777	         -0.00685520	         28.26301254	          0.98329662	          1.83704312	        -14.06575854	          7.73332467	          0.17087455	         -6.99935650	          0.88304078	          1.21736426	        -30.93821190	          0.63039064	         29.59423152	         -6.04102926	          2.09271431	         -2.07697050	          0.07909810	          0.04769766	          0.01000001	          0.19058495	          0.11255436	          0.06001110	          0.03129709	          0.12375704	          0.01000001	          0.01000025	          0.17969319	          0.01000015	          0.01000010	          0.25709795	          0.20599230	          0.01000000	          0.01000001	          0.01000000	          0.06282305	          0.01388593	          0.03531953	          0.00999999	          0.09201525	          0.01000001	          0.00999999	          0.04778473	          0.10441054	          0.02514883	
